HIERARCHY
ROOT hip
{
	OFFSET 0.000000 0.000000 0.000000 
	CHANNELS 6 Xposition Yposition Zposition Xrotation Zrotation Yrotation
	JOINT abdomen
	{
		OFFSET 0.000000 3.402643 0.000000 
		CHANNELS 3 Xrotation Zrotation Yrotation
		JOINT chest
		{
			OFFSET 0.000000 8.438565 -0.680529 
			CHANNELS 3 Xrotation Zrotation Yrotation
			JOINT neck
			{
				OFFSET 0.000000 10.207942 -0.272212 
				CHANNELS 3 Xrotation Zrotation Yrotation
				JOINT head
				{
					OFFSET 0.000000 3.130431 0.000000 
					CHANNELS 3 Xrotation Zrotation Yrotation
					End Site
					{
						OFFSET 0.000000 3.130435 0.000000 
					}
				}
			}
			JOINT lCollar
			{
				OFFSET 3.470700 6.669187 -0.816635 
				CHANNELS 3 Yrotation Zrotation Xrotation
				JOINT lShldr
				{
					OFFSET 3.198488 0.000000 0.000000 
					CHANNELS 3 Zrotation Yrotation Xrotation
					JOINT lForeArm
					{
						OFFSET 10.139888 0.000000 0.000000 
						CHANNELS 3 Yrotation Zrotation Xrotation
						JOINT lHand
						{
							OFFSET 8.370511 0.000000 0.000000 
							CHANNELS 3 Zrotation Yrotation Xrotation
							End Site
							{
								OFFSET 4.083176 0.000000 0.000000 
							}
						}
					}
				}
			}
			JOINT rCollar
			{
				OFFSET -3.470700 6.669187 -0.816635 
				CHANNELS 3 Yrotation Zrotation Xrotation
				JOINT rShldr
				{
					OFFSET -3.198488 0.000000 0.000000 
					CHANNELS 3 Zrotation Yrotation Xrotation
					JOINT rForeArm
					{
						OFFSET -10.139888 0.000000 0.000000 
						CHANNELS 3 Yrotation Zrotation Xrotation
						JOINT rHand
						{
							OFFSET -8.370511 0.000000 0.000000 
							CHANNELS 3 Zrotation Yrotation Xrotation
							End Site
							{
								OFFSET -4.083176 0.000000 0.000000 
							}
						}
					}
				}
			}
		}
	}
	JOINT lThigh
	{
		OFFSET 5.308129 -1.633274 1.361059 
		CHANNELS 3 Xrotation Zrotation Yrotation
		JOINT lShin
		{
			OFFSET -2.041588 -20.007561 0.000000 
			CHANNELS 3 Xrotation Zrotation Yrotation
			JOINT lFoot
			{
				OFFSET 0.000000 -19.190928 -1.224953 
				CHANNELS 3 Xrotation Yrotation Zrotation
				End Site
				{
					OFFSET 0.000000 -2.449906 4.627600 
				}
			}
		}
	}
	JOINT rThigh
	{
		OFFSET -5.308129 -1.633274 1.361059 
		CHANNELS 3 Xrotation Zrotation Yrotation
		JOINT rShin
		{
			OFFSET 2.041588 -20.007561 0.000000 
			CHANNELS 3 Xrotation Zrotation Yrotation
			JOINT rFoot
			{
				OFFSET 0.000000 -19.190928 -1.224953 
				CHANNELS 3 Xrotation Yrotation Zrotation
				End Site
				{
					OFFSET 0.000000 -2.449906 4.627600 
				}
			}
		}
	}
}
MOTION
Frames: 18
Frame Time: 0.016667
-0.055088 44.640862 0.004975 -5.257160 -2.012990 -18.555201 -17.108000 0.609752 0.709948 20.478500 2.236330 0.368045 -4.951980 -2.391000 -0.172789 6.236070 4.249960 0.204789 2.000000 -2.000000 0.000000 -98.475700 -13.377000 -153.733002 82.774002 -0.232046 0.135678 -179.916000 -179.895004 2.092000 -2.000000 2.000000 0.000000 92.739700 17.122801 -141.957993 -68.135300 0.265765 0.126888 -0.075076 0.058151 -158.171997 -5.311218 -4.685447 -4.708672 31.250557 2.998152 2.224244 -13.429451 10.184127 1.888803 -9.685946 1.080042 8.579818 30.764944 -3.121022 -2.164617 -9.902143 -5.355324 -0.971743 
0.574263 44.777512 -0.215515 -4.613480 -2.414040 -21.006599 -17.009899 0.752247 0.840229 20.351400 2.363270 0.450528 -5.565900 -1.701730 -0.388599 6.090410 4.504410 0.154251 2.000000 -2.000000 0.000000 -98.016197 -14.361400 -152.822006 82.275902 -0.233225 0.135523 -179.906006 -179.884995 2.062720 -2.000000 2.000000 0.000000 91.530502 17.495800 -142.953003 -68.994698 0.263856 0.127637 -0.074595 0.056901 -157.692993 -5.731126 -4.401992 -2.512132 30.172155 2.962085 2.160810 -12.812549 10.525069 2.035994 -10.372847 0.968788 8.905247 29.283552 -3.163205 -2.065771 -8.492027 -4.526063 -0.608249 
1.204984 44.915180 -0.451085 -3.626630 -2.543730 -22.876101 -17.089701 0.745041 0.515528 20.204700 2.490190 0.287459 -6.614240 -0.425393 -0.439931 5.720710 5.062530 0.258731 2.000000 -2.000000 0.000000 -97.616203 -15.191300 -152.712997 82.002502 -0.233871 0.135434 -179.916000 -179.895004 2.111530 -2.000000 2.000000 0.000000 90.164597 17.995199 -143.645004 -69.561096 0.262592 0.128116 -0.074957 0.057845 -158.054993 -6.561672 -4.349645 -1.405734 29.046749 2.910564 2.114861 -11.885211 11.292555 2.187553 -11.484911 0.649806 7.654233 28.252094 -3.142653 -2.014654 -8.400770 -4.361904 -0.613988 
1.745736 45.091778 -0.691290 -2.894660 -3.023490 -25.345501 -17.001600 0.782043 0.586588 20.224300 2.412070 0.327823 -7.658550 0.374480 -0.415134 5.319920 5.347410 0.337201 2.000000 -2.000000 0.000000 -96.796097 -16.079300 -152.438004 82.002502 -0.233871 0.135434 -179.914993 -179.893997 1.506060 -2.000000 2.000000 0.000000 89.102798 18.710800 -145.057007 -70.137199 0.261301 0.128589 -0.075026 0.058024 -158.123001 -6.859312 -3.990732 -0.319043 27.945490 2.901916 2.049999 -11.349954 12.372461 2.442050 -12.036416 0.803469 6.119928 28.181826 -3.071883 -2.027799 -10.033893 -4.909442 -0.925346 
2.225633 45.236164 -0.982399 -2.045190 -3.659780 -28.258301 -17.110201 1.111280 0.575880 19.930901 2.714680 0.351257 -8.854770 1.318330 -0.227457 4.762380 5.808430 0.515823 2.000000 -2.000000 0.000000 -96.376801 -16.529200 -152.720001 81.992699 -0.233894 0.135431 -179.916000 -179.893997 1.955280 -2.000000 2.000000 0.000000 87.376503 19.143200 -146.442993 -70.879402 0.259632 0.129180 -0.075096 0.058202 -158.190994 -7.364007 -3.298557 0.893777 27.474831 2.893311 2.044947 -11.210013 13.732206 2.801963 -12.015718 1.369019 4.964914 28.526720 -2.982030 -2.061119 -10.245212 -7.032449 -1.298612 
2.670796 45.329105 -1.228824 -1.487110 -3.475390 -31.111200 -17.226299 1.081690 0.746749 19.921101 2.900210 0.426866 -9.526760 2.942250 -0.071376 4.420950 6.561410 0.759845 2.000000 -2.000000 0.000000 -95.615501 -16.841999 -152.893005 82.070801 -0.233709 0.135457 -179.906006 -179.884995 2.062720 -2.000000 2.000000 0.000000 85.817398 19.987000 -148.423004 -71.260300 0.258772 0.129475 -0.074908 0.057718 -158.005997 -7.528253 -3.423339 2.040852 26.210739 2.846357 1.993585 -10.881096 14.808761 3.112374 -12.066554 0.933728 3.830679 30.099398 -2.914921 -2.189195 -10.279009 -8.848387 -1.624012 
3.106152 45.405674 -1.415935 -1.174010 -3.456310 -33.620701 -17.264400 0.831253 0.772949 19.979900 2.568230 0.413635 -9.995840 4.215320 0.097601 4.127370 7.138330 0.951999 2.000000 -2.000000 0.000000 -94.679001 -16.902500 -153.791000 82.275902 -0.233225 0.135523 -179.916000 -179.895004 2.277540 -2.000000 2.000000 0.000000 83.750801 21.065800 -150.604996 -72.246597 0.256537 0.130212 -0.075265 0.058635 -158.356995 -7.578850 -3.544018 3.187067 25.326052 2.824313 1.923924 -10.524978 16.079292 3.408476 -11.360600 0.373608 2.740651 31.595638 -2.900041 -2.281193 -9.465910 -10.483763 -1.725009 
3.509626 45.472572 -1.597069 -0.821542 -3.134440 -36.058701 -17.322399 0.764338 0.844330 20.194901 2.665960 0.442178 -10.300400 5.060230 0.398690 3.931290 7.539120 1.180980 2.000000 -2.000000 0.000000 -94.231102 -16.729601 -155.119995 82.832603 -0.231908 0.135695 -179.916000 -179.895004 2.150590 -2.000000 2.000000 0.000000 80.591103 22.224100 -153.444000 -73.223198 0.254312 0.130904 -0.076580 0.061879 -159.606995 -7.688875 -3.851046 4.046585 24.139727 2.780272 1.873518 -10.276975 17.305447 3.728728 -10.679132 -0.674712 1.548610 32.708244 -2.874530 -2.336326 -8.823251 -10.793907 -1.666870 
3.830610 45.486881 -1.787358 -0.489055 -3.222540 -38.468601 -17.459801 0.772901 0.728144 20.165600 2.763610 0.391322 -10.411700 5.267630 0.867707 3.773790 7.617510 1.414050 2.000000 -2.000000 0.000000 -93.441803 -16.313900 -157.044006 83.154800 -0.231144 0.135789 -179.917007 -179.895996 2.492390 -2.000000 2.000000 0.000000 77.118500 23.011499 -156.294006 -74.551300 0.251267 0.131784 -0.077394 0.063792 -160.348999 -7.941617 -3.732512 4.666447 23.681467 2.747488 1.873976 -10.433110 18.662161 4.150616 -9.304335 -1.222563 1.065402 33.224339 -2.921486 -2.351898 -8.997944 -11.438731 -1.830726 
4.177791 45.538311 -1.950058 0.058701 -3.457030 -40.892799 -17.538900 0.856044 0.588713 20.282900 2.636690 0.338984 -10.558300 5.103130 1.449160 3.655420 7.500480 1.662930 2.000000 -2.000000 0.000000 -92.769699 -15.908700 -159.291000 83.086502 -0.231306 0.135769 -179.917999 -179.897003 3.283400 -2.000000 2.000000 0.000000 73.167801 23.995800 -159.774002 -75.635300 0.248768 0.132449 -0.078378 0.066017 -161.218994 -8.218964 -3.363993 5.218095 23.409739 2.712604 1.862085 -11.002902 20.128788 4.694963 -7.667199 -1.717164 0.074087 32.646088 -3.010523 -2.315809 -8.531789 -11.530941 -1.768678 
4.495181 45.566296 -2.290555 0.753626 -3.818030 -43.419899 -17.841900 1.029810 0.662555 19.696400 2.538780 0.401384 -10.362800 4.983140 1.895370 3.674970 7.383270 1.851730 2.000000 -2.000000 0.000000 -91.403801 -15.385800 -161.264999 83.106003 -0.231260 0.135775 -179.917999 -179.897003 2.990430 -2.000000 2.000000 0.000000 69.138397 24.249701 -164.110001 -76.846199 0.245961 0.133136 -0.078775 0.066888 -161.559998 -8.939778 -2.476985 6.145006 23.644022 2.726702 1.861187 -11.310429 21.348518 5.111918 -6.270721 -1.682713 -0.443077 31.988310 -3.095417 -2.259876 -7.266316 -12.801883 -1.603268 
4.770982 45.607288 -2.527578 1.408530 -3.260740 -46.984901 -17.945601 1.071740 1.191180 20.155899 2.333930 0.667288 -10.022700 4.624370 2.511920 3.812450 7.148700 2.114300 2.000000 -2.000000 0.000000 -89.833000 -14.883200 -163.561005 83.281799 -0.230844 0.135825 -179.917999 -179.897003 3.029490 -2.000000 2.000000 0.000000 64.844597 24.485001 -168.695007 -77.705597 0.243961 0.133588 -0.079537 0.068525 -162.205002 -9.536679 -2.345293 7.744887 22.986170 2.635613 1.863719 -11.512874 23.017365 5.764794 -5.766462 -2.677156 -0.926269 31.537691 -3.164543 -2.205790 -6.949082 -13.086102 -1.565126 
5.021844 45.651112 -2.802503 2.042970 -2.508170 -50.177700 -18.304199 1.061170 1.468290 20.204800 2.148400 0.816899 -9.417580 4.145160 3.178140 4.038280 6.894380 2.386330 2.000000 -2.000000 0.000000 -88.144402 -13.765900 -166.033997 83.408699 -0.230543 0.135860 -179.908997 -179.888000 3.420140 -2.000000 2.000000 0.000000 -119.186996 156.070007 6.655200 -78.565002 0.241954 0.134010 -0.080150 0.069808 -162.712997 -10.370497 -2.274133 8.595042 22.226189 2.566230 1.834111 -11.964805 24.621012 6.474099 -5.693644 -3.699568 -1.808360 31.325020 -3.220143 -2.183808 -6.028842 -14.003069 -1.456999 
5.218514 45.749214 -3.113804 3.204550 -1.706310 -52.410198 -18.659700 1.036530 1.040850 20.634800 2.041010 0.637896 -8.656310 3.345220 4.127110 4.361750 6.483450 2.764410 2.000000 -2.000000 0.000000 -86.397400 -12.728200 -169.169006 83.545403 -0.230219 0.135897 -179.919006 -179.897995 3.722850 -2.000000 2.000000 0.000000 -122.710999 155.513000 2.056960 -77.695801 0.243984 0.133583 -0.079889 0.069266 -162.498001 -11.829862 -1.659253 8.505305 21.931046 2.486589 1.844546 -12.704683 26.082775 7.275571 -5.619731 -3.930656 -3.053936 30.448027 -3.231569 -2.137838 -5.459432 -15.374922 -1.531820 
5.384000 45.748302 -3.466107 3.848570 -1.247180 -54.810600 -19.197701 0.957960 0.886450 20.224501 1.728490 0.556391 -7.729180 1.848830 5.192790 4.742360 5.691310 3.139330 2.000000 -2.000000 0.000000 -84.376198 -11.093900 -171.839005 83.857903 -0.229477 0.135978 -179.919006 -179.897995 3.693550 -2.000000 2.000000 0.000000 -126.863998 157.289993 -1.902570 -78.731003 0.241566 0.134088 -0.081103 0.071747 -163.483994 -12.773508 -1.077779 8.401166 22.021769 2.475884 1.870659 -13.923662 27.564442 8.246943 -5.175408 -4.016248 -3.598780 29.495615 -3.290161 -2.065380 -5.506437 -16.334415 -1.652932 
5.598274 45.757069 -3.835183 4.199480 -0.633061 -56.609100 -19.326799 0.771304 0.360634 20.322201 1.416000 0.277411 -7.018110 0.593221 6.263870 5.152420 5.152810 3.560080 2.000000 -2.000000 0.000000 97.107903 -170.003006 5.228830 84.014198 -0.229107 0.136018 -179.919998 -179.899002 4.103710 -2.000000 2.000000 0.000000 -131.016006 158.276001 -6.078610 -79.248596 0.240354 0.134324 -0.081744 0.073016 -163.992004 -13.564394 -0.832403 8.225445 21.673365 2.423499 1.857741 -14.921125 28.715250 9.130192 -5.082241 -4.510320 -5.654621 28.693184 -3.323224 -2.003704 -5.228952 -16.334816 -1.612150 
5.663229 45.739422 -4.484982 3.603760 -0.662750 -60.744999 -19.265800 0.839180 0.875494 19.892200 1.845580 0.515722 -6.609900 -1.069850 7.278270 5.472570 4.331440 3.910060 2.000000 -2.000000 0.000000 99.041496 -171.264999 2.218040 84.404800 -0.228179 0.136112 -179.919998 -179.899994 4.347850 -2.000000 2.000000 0.000000 46.305500 20.347099 169.563004 -79.570801 0.239598 0.134465 -0.081385 0.072309 -163.709000 -13.141401 -0.075234 11.046895 21.851492 2.491965 1.837209 -16.842693 28.995602 10.103274 -4.804336 -4.821221 -5.016836 28.281013 -3.389797 -1.974155 -5.226441 -17.057663 -1.516294 
5.788991 45.714916 -5.023429 3.164340 -0.760558 -63.753101 -19.235800 0.751551 0.947676 19.521000 1.757530 0.534655 -6.584090 -2.925740 8.211540 5.625990 3.510820 4.191800 2.000000 -2.000000 0.000000 100.829002 -172.470001 -0.343408 84.600098 -0.227715 0.136156 -179.919998 -179.899994 4.435740 -2.000000 2.000000 0.000000 43.235100 18.432899 165.417007 -79.912598 0.238795 0.134610 -0.081484 0.072504 -163.787003 -13.027806 0.459678 12.357554 22.365721 2.555108 1.849621 -18.680779 29.638683 11.162204 -4.366456 -5.019594 -5.726030 27.401262 -3.475967 -1.894733 -4.655638 -17.470797 -1.201131 
